<?xml version="1.0" encoding="UTF-8" standalone="no"?>
<svg
   viewBox="0 0 24 24"
   version="1.1"
   id="svg1539"
   sodipodi:docname="cog_dark.svg"
   inkscape:version="1.2.1 (9c6d41e410, 2022-07-14)"
   xmlns:inkscape="http://www.inkscape.org/namespaces/inkscape"
   xmlns:sodipodi="http://sodipodi.sourceforge.net/DTD/sodipodi-0.dtd"
   xmlns="http://www.w3.org/2000/svg"
   xmlns:svg="http://www.w3.org/2000/svg">
  <defs
     id="defs1543" />
  <sodipodi:namedview
     id="namedview1541"
     pagecolor="#ffffff"
     bordercolor="#000000"
     borderopacity="0.25"
     inkscape:showpageshadow="2"
     inkscape:pageopacity="0.0"
     inkscape:pagecheckerboard="0"
     inkscape:deskcolor="#d1d1d1"
     showgrid="false"
     inkscape:zoom="33.916667"
     inkscape:cx="12.07371"
     inkscape:cy="12.029484"
     inkscape:window-width="1920"
     inkscape:window-height="1001"
     inkscape:window-x="-9"
     inkscape:window-y="-9"
     inkscape:window-maximized="1"
     inkscape:current-layer="svg1539" />
  <path
     d="M12,15.5A3.5,3.5 0 0,1 8.5,12A3.5,3.5 0 0,1 12,8.5A3.5,3.5 0 0,1 15.5,12A3.5,3.5 0 0,1 12,15.5M19.43,12.97C19.47,12.65 19.5,12.33 19.5,12C19.5,11.67 19.47,11.34 19.43,11L21.54,9.37C21.73,9.22 21.78,8.95 21.66,8.73L19.66,5.27C19.54,5.05 19.27,4.96 19.05,5.05L16.56,6.05C16.04,5.66 15.5,5.32 14.87,5.07L14.5,2.42C14.46,2.18 14.25,2 14,2H10C9.75,2 9.54,2.18 9.5,2.42L9.13,5.07C8.5,5.32 7.96,5.66 7.44,6.05L4.95,5.05C4.73,4.96 4.46,5.05 4.34,5.27L2.34,8.73C2.21,8.95 2.27,9.22 2.46,9.37L4.57,11C4.53,11.34 4.5,11.67 4.5,12C4.5,12.33 4.53,12.65 4.57,12.97L2.46,14.63C2.27,14.78 2.21,15.05 2.34,15.27L4.34,18.73C4.46,18.95 4.73,19.03 4.95,18.95L7.44,17.94C7.96,18.34 8.5,18.68 9.13,18.93L9.5,21.58C9.54,21.82 9.75,22 10,22H14C14.25,22 14.46,21.82 14.5,21.58L14.87,18.93C15.5,18.67 16.04,18.34 16.56,17.94L19.05,18.95C19.27,19.03 19.54,18.95 19.66,18.73L21.66,15.27C21.78,15.05 21.73,14.78 21.54,14.63L19.43,12.97Z"
     id="path1537"
     style="fill:#484848;fill-opacity:1" />
  <path
     style="fill:#f1f3f4;stroke-width:0.029;fill-opacity:1;stroke:#f1f3f4;stroke-opacity:1;stroke-dasharray:none"
     d="M 9.8181968,21.94722 C 9.7227275,21.909151 9.6170971,21.809661 9.5642022,21.70799 9.5411082,21.663601 9.4429196,21.053281 9.346005,20.351724 9.2490904,19.650168 9.1597862,19.039135 9.1475519,18.993873 9.1291013,18.925617 9.08237,18.892592 8.8735892,18.800265 8.5527175,18.658368 8.1132111,18.401719 7.7487997,18.143447 7.5917206,18.032119 7.4482507,17.941032 7.4299777,17.941032 c -0.018273,0 -0.5926467,0.226488 -1.2763857,0.503306 -0.6837394,0.276818 -1.2801975,0.510713 -1.3254629,0.519766 -0.102241,0.02045 -0.317523,-0.05898 -0.3975145,-0.146664 -0.051144,-0.05606 -1.9449744,-3.311829 -2.0824919,-3.580104 -0.060967,-0.118936 -0.062055,-0.310148 -0.00248,-0.435693 0.032835,-0.0692 0.3557572,-0.338846 1.1352149,-0.947944 l 1.0893261,-0.851242 -0.022193,-0.324324 c -0.028349,-0.414296 -0.02828,-0.939685 1.799e-4,-1.371008 L 4.5705443,10.968059 3.48101,10.1315 C 2.6901762,9.5242879 2.3789028,9.2684464 2.345615,9.1982974 2.2860654,9.072806 2.2871661,8.88158 2.3481227,8.7626635 2.4573912,8.5494981 4.3747101,5.2438266 4.4189093,5.1923961 4.4801798,5.1211017 4.6808847,5.0285525 4.7764127,5.0275438 4.8169533,5.0271163 5.4326108,5.2609854 6.1445407,5.5472538 6.9931883,5.8884969 7.4512681,6.058616 7.4747029,6.0412419 7.9115298,5.7173899 8.6739832,5.2687146 9.0121161,5.1365321 9.1057114,5.0999439 9.1387868,5.069045 9.1516245,5.0062033 9.1608792,4.9608996 9.2480479,4.3498319 9.3453325,3.6482752 9.4426168,2.9467185 9.5411082,2.3363991 9.5642022,2.2920099 9.6191916,2.1863126 9.7241846,2.0902386 9.8274721,2.051104 c 0.1154433,-0.04374 4.2296119,-0.04374 4.3450559,0 0.103637,0.039267 0.208322,0.135287 0.263832,0.2419939 0.02356,0.045289 0.120584,0.6440329 0.217388,1.3415233 0.09616,0.6928502 0.182566,1.3032243 0.192012,1.3563869 0.01423,0.080075 0.03842,0.1049655 0.140991,0.1450709 0.348452,0.136246 1.06175,0.5559959 1.539165,0.9057432 0.02487,0.018218 0.460342,-0.1433941 1.330726,-0.4938575 0.711569,-0.2865158 1.326813,-0.5206464 1.367208,-0.5202903 0.09515,8.374e-4 0.295922,0.093395 0.357315,0.1647217 0.04457,0.051784 1.9639,3.3607462 2.070895,3.5702674 0.06451,0.1263158 0.06086,0.3111756 -0.0088,0.4448993 -0.04328,0.083107 -0.316091,0.3077475 -1.135433,0.9349432 l -1.078467,0.825553 0.02241,0.339066 c 0.02836,0.42904 0.0286,0.954474 6.37e-4,1.371008 l -0.02177,0.324324 1.077538,0.840295 c 0.803831,0.62685 1.092082,0.868081 1.134796,0.949685 0.0699,0.13355 0.07367,0.318396 0.0091,0.444899 -0.134389,0.263165 -2.031111,3.523736 -2.082599,3.580104 -0.08039,0.08801 -0.295347,0.167112 -0.398213,0.146539 -0.04561,-0.0091 -0.640775,-0.243016 -1.322592,-0.519766 -0.681817,-0.27675 -1.2536,-0.503181 -1.270628,-0.503181 -0.01703,0 -0.220874,0.127794 -0.45299,0.283988 -0.232117,0.156193 -0.611526,0.377294 -0.843132,0.491336 -0.387367,0.190738 -0.422394,0.214637 -0.437212,0.298322 -0.0089,0.05004 -0.09479,0.65785 -0.190946,1.3507 -0.0968,0.697491 -0.193828,1.296235 -0.217388,1.341524 -0.05551,0.106707 -0.160195,0.202727 -0.263832,0.241994 -0.11048,0.04186 -4.2491473,0.04027 -4.3543312,-0.0017 z M 12.372575,15.491919 C 13.607542,15.354212 14.646221,14.617684 15.171359,13.5073 16.032913,11.685577 15.192719,9.507331 13.336602,8.7506001 12.321678,8.3368195 11.164945,8.4161967 10.230958,8.9637151 9.1437387,9.601061 8.4914004,10.739675 8.4914004,12 c 0,1.923638 1.5163776,3.466917 3.4581646,3.519516 0.07767,0.0021 0.268021,-0.01032 0.42301,-0.0276 z"
     id="path856" />
</svg>
